<?xml version="1.0" encoding="utf-8"?>
<!-- Generator: Adobe Illustrator 22.0.1, SVG Export Plug-In . SVG Version: 6.00 Build 0)  -->
<svg version="1.1" id="Capa_1" xmlns="http://www.w3.org/2000/svg" xmlns:xlink="http://www.w3.org/1999/xlink" x="0px" y="0px"
	 viewBox="0 0 49.7 49.7" style="enable-background:new 0 0 49.7 49.7;" xml:space="preserve">
<g>
	<path d="M37.4,18c0-3.2-2.6-5.7-5.7-5.7H18c-3.2,0-5.7,2.6-5.7,5.7v13.7c0,3.2,2.6,5.7,5.7,5.7h13.7c3.2,0,5.7-2.6,5.7-5.7h0V18z
		 M24.8,32.7c-4.3,0-7.9-3.5-7.9-7.9c0-4.3,3.5-7.9,7.9-7.9c4.3,0,7.9,3.5,7.9,7.9C32.7,29.2,29.2,32.7,24.8,32.7z M34.4,18
		c-0.4,0.4-0.9,0.6-1.4,0.6c-0.5,0-1-0.2-1.4-0.6c-0.4-0.4-0.6-0.9-0.6-1.4c0-0.5,0.2-1,0.6-1.4c0.4-0.4,0.9-0.6,1.4-0.6
		c0.5,0,1,0.2,1.4,0.6c0.4,0.4,0.6,0.9,0.6,1.4C35,17.2,34.8,17.7,34.4,18z"/>
	<path d="M24.8,19.7c-2.8,0-5.2,2.3-5.2,5.2c0,2.8,2.3,5.2,5.2,5.2c2.8,0,5.2-2.3,5.2-5.2C30,22,27.7,19.7,24.8,19.7z"/>
	<path d="M24.8,0C11.1,0,0,11.1,0,24.8c0,13.7,11.1,24.8,24.8,24.8c13.7,0,24.8-11.1,24.8-24.8C49.7,11.1,38.5,0,24.8,0z M40.1,31.7
		c0,4.7-3.8,8.4-8.4,8.4H18c-4.7,0-8.4-3.8-8.4-8.4V18c0-4.7,3.8-8.4,8.4-8.4h13.7c4.7,0,8.4,3.8,8.4,8.4V31.7z"/>
</g>
</svg>
