<?xml version="1.0" encoding="utf-8"?>
<!-- Generator: Adobe Illustrator 22.0.1, SVG Export Plug-In . SVG Version: 6.00 Build 0)  -->
<svg version="1.1" id="Layer_1" xmlns="http://www.w3.org/2000/svg" xmlns:xlink="http://www.w3.org/1999/xlink" x="0px" y="0px"
	 viewBox="0 0 169 91.6" style="enable-background:new 0 0 169 91.6;" xml:space="preserve">
<style type="text/css">
	.st0{fill:#D5652B;}
	.st1{fill:none;}
	.st2{fill:#4D4D4F;}
	.st3{font-family:'Helvetica-Bold';}
	.st4{font-size:18px;}
</style>
<g>
	<g>
		<path class="st0" d="M103.2,5.7h-4v4h4V5.7z M84.7,49.3h4v-4h-4V49.3z M92.6,53.2h4v-4h-4V53.2z M91.7,31.6h4v-4h-4V31.6z
			 M95.7,9.3h-4c0,0,0,3.4,0,3.7h-3.4c0-0.3,0-3.7,0-3.7h-4c0,0,0,3.4,0,3.7h-3.4c0-0.3,0-3.7,0-3.7H69.8c0,0,0,3.4,0,3.7h-3.4
			c0-0.3,0-3.7,0-3.7h-7.6c0,0,0,3.4,0,3.7h-7V9.6c0.3,0,3.7,0,3.7,0v-4c0,0-10.7,0-11,0c0-0.3,0-3.7,0-3.7H25.8c0,0,0,3.4,0,3.7
			c-0.3,0-11,0-11,0s0,3.4,0,3.7c-0.3,0-3.7,0-3.7,0s0,3.4,0,3.7c-0.3,0-3.7,0-3.7,0s0,7.1,0,7.3c-0.3,0-3.6,0-3.6,0v11.3
			c0,0,3.4,0,3.6,0c0,0.3,0,7.2,0,7.2l0,3.7v3.8c0,0,3.4,0,3.6,0c0,0.3,0,18.2,0,18.2l0,3.8h14.9c0,0,0-3.4,0-3.7c0.3,0,3.7,0,3.7,0
			s0-3.4,0-3.7c0.3,0,3.7,0,3.7,0s0-5.4,0-5.7c1.4,0,0.2,0,22,0c0,0,0-1.4,0-1.7c0.3,0,7.3,0,7.3,0s0-3.4,0-3.7c0.3,0,3.7,0,3.7,0
			s0-3.4,0-3.7c0.3,0,3.7,0,3.7,0s0-3.4,0-3.7c0.3,0,7.2,0,7.2,0l3.8,0c0,0,0-1.1,0-1.3c0.3,0,3.7,0,3.7,0s0-13.1,0-13.4
			c0.3,0,3.7,0,3.7,0s0-3.4,0-3.7c0.3,0,3.7,0,3.7,0s0-3.4,0-3.7c0.3,0,3.7,0,3.7,0s0-3.4,0-3.7c0.3,0,3.7,0,3.7,0v-4
			c0,0-3.4,0-3.7,0C95.7,12.7,95.7,9.3,95.7,9.3z M14.8,27.7h-3.4v-3.4h3.4V27.7z M29.5,57.1h-3.4v-3.4h3.4V57.1z M36.8,20.3h-3.4
			V17h3.4V20.3z M44.1,46h-3.4v-3.4h3.4V46z M44.1,35h-3.4v-3.4h3.4V35z M44.1,9.3h-3.4V6h3.4V9.3z M55.1,24h-3.4v-3.4h3.4V24z
			 M58.8,38.7h-3.4v-3.4h3.4V38.7z M58.8,31.4h-3.4V28h3.4V31.4z M62.4,49.7h-3.4v-3.4h3.4V49.7z M66.1,42.4h-3.4V39h3.4V42.4z
			 M69.8,24h-3.4v-3.4h3.4V24z M73.4,31.4h-3.4V28h3.4V31.4z M73.4,16.7h-3.4v-3.4h3.4V16.7z M77.1,24h-3.4v-3.4h3.4V24z M80.8,27.7
			h-3.4v-3.4h3.4V27.7z M84.4,20.3h-3.4V17h3.4V20.3z M88.1,16.7h-3.4v-3.4h3.4V16.7z M91.8,20.3h-3.4V17h3.4V20.3z M95.4,16.7H92
			v-3.4h3.4V16.7z M102.9,16.7v4h4v-4H102.9z"/>
		<rect x="32" y="55.3" class="st1" width="71.7" height="16.3"/>
		<text transform="matrix(1 0 0 1 31.9996 68.2251)" class="st2 st3 st4">Funda</text>
		<rect x="96.3" y="56" class="st1" width="85" height="16.3"/>
		<text transform="matrix(1 0 0 1 96.3339 68.8918)" class="st0 st3 st4">Hígado</text>
	</g>
	<g>
		<g>
			<path class="st2" d="M11.4,73.2h1.4c1.1,0,2,0.4,2,1.6c0,1.2-0.9,1.6-1.9,1.6h-0.7v2.1h-0.8V73.2z M12.1,75.7h0.7
				c0.5,0,1.1-0.2,1.1-0.9c0-0.7-0.7-0.9-1.2-0.9h-0.6V75.7z"/>
			<path class="st2" d="M15.6,73.2h1.3c1,0,2,0.2,2,1.4c0,0.6-0.5,1.1-1.1,1.2v0c0.2,0.1,0.3,0.2,0.5,0.5l1,2.1h-0.9l-0.8-1.8
				c-0.2-0.5-0.5-0.5-0.9-0.5h-0.5v2.3h-0.8V73.2z M16.3,75.4h0.6c0.7,0,1.1-0.3,1.1-0.8c0-0.5-0.4-0.8-1.1-0.8h-0.7V75.4z"/>
			<path class="st2" d="M22.4,73.1c1.6,0,2.5,1.2,2.5,2.7c0,1.6-0.9,2.7-2.5,2.7c-1.6,0-2.5-1.1-2.5-2.7
				C19.9,74.3,20.8,73.1,22.4,73.1z M22.4,77.9c1.2,0,1.7-1,1.7-2c0-1.1-0.6-2.1-1.7-2c-1.2,0-1.7,1-1.7,2
				C20.7,76.9,21.2,77.9,22.4,77.9z"/>
			<path class="st2" d="M30,74.1c-0.4-0.2-0.8-0.4-1.4-0.4c-1.2,0-2,0.9-2,2c0,1.2,0.9,2,2,2c0.5,0,0.7-0.1,0.8-0.1v-1.6h-1.1v-0.6
				h1.9v2.7c-0.3,0.1-0.8,0.2-1.6,0.2c-1.7,0-2.8-1.1-2.8-2.7c0-1.6,1.2-2.7,2.8-2.7c0.8,0,1.1,0.1,1.5,0.3L30,74.1z"/>
			<path class="st2" d="M31.4,73.2h1.3c1,0,2,0.2,2,1.4c0,0.6-0.5,1.1-1.1,1.2v0c0.2,0.1,0.3,0.2,0.5,0.5l1,2.1h-0.9l-0.8-1.8
				c-0.2-0.5-0.5-0.5-0.9-0.5h-0.5v2.3h-0.8V73.2z M32.1,75.4h0.6c0.7,0,1.1-0.3,1.1-0.8c0-0.5-0.4-0.8-1.1-0.8h-0.7V75.4z"/>
			<path class="st2" d="M37.7,73.2h0.8l2.2,5.2h-0.8l-0.5-1.3h-2.6l-0.5,1.3h-0.8L37.7,73.2z M38,73.9l-1,2.6h2.1L38,73.9z"/>
			<path class="st2" d="M41.4,73.2h1.2l1.6,4.4l1.6-4.4h1.2v5.2h-0.8v-4.5h0l-1.7,4.5h-0.7l-1.7-4.5h0v4.5h-0.8V73.2z"/>
			<path class="st2" d="M50.2,73.2H51l2.2,5.2h-0.8l-0.5-1.3h-2.6l-0.5,1.3h-0.8L50.2,73.2z M50.5,73.9l-1,2.6h2.1L50.5,73.9z"/>
			<path class="st2" d="M56,73.2h1.2l1.6,4.4l1.6-4.4h1.2v5.2H61v-4.5h0l-1.7,4.5h-0.7l-1.7-4.5h0v4.5H56V73.2z"/>
			<path class="st2" d="M63.1,73.2h2.9v0.7h-2.2v1.5h2V76h-2v1.7h2.2v0.7h-2.9V73.2z"/>
			<path class="st2" d="M68.3,73.8h-1.6v-0.7h4v0.7h-1.6v4.6h-0.8V73.8z"/>
			<path class="st2" d="M71.4,73.2h1.3c1,0,2,0.2,2,1.4c0,0.6-0.5,1.1-1.1,1.2v0c0.2,0.1,0.3,0.2,0.5,0.5l1,2.1h-0.9l-0.8-1.8
				c-0.2-0.5-0.5-0.5-0.9-0.5h-0.5v2.3h-0.8V73.2z M72.1,75.4h0.6c0.7,0,1.1-0.3,1.1-0.8c0-0.5-0.4-0.8-1.1-0.8h-0.7V75.4z"/>
			<path class="st2" d="M78.3,73.1c1.6,0,2.5,1.2,2.5,2.7c0,1.6-0.9,2.7-2.5,2.7c-1.6,0-2.5-1.1-2.5-2.7
				C75.7,74.3,76.7,73.1,78.3,73.1z M78.3,77.9c1.2,0,1.7-1,1.7-2c0-1.1-0.6-2.1-1.7-2c-1.2,0-1.7,1-1.7,2
				C76.5,76.9,77.1,77.9,78.3,77.9z"/>
			<path class="st2" d="M81.8,73.2h1.4c1.1,0,2,0.4,2,1.6c0,1.2-0.9,1.6-1.9,1.6h-0.7v2.1h-0.8V73.2z M82.6,75.7h0.7
				c0.5,0,1.1-0.2,1.1-0.9c0-0.7-0.7-0.9-1.2-0.9h-0.6V75.7z"/>
			<path class="st2" d="M88.3,73.1c1.6,0,2.5,1.2,2.5,2.7c0,1.6-0.9,2.7-2.5,2.7c-1.6,0-2.5-1.1-2.5-2.7
				C85.8,74.3,86.7,73.1,88.3,73.1z M88.3,77.9c1.2,0,1.7-1,1.7-2c0-1.1-0.6-2.1-1.7-2c-1.2,0-1.7,1-1.7,2
				C86.5,76.9,87.1,77.9,88.3,77.9z"/>
			<path class="st2" d="M91.8,73.2h0.8v4.6h2.2v0.7h-2.9V73.2z"/>
			<path class="st2" d="M95.6,73.2h0.8v5.2h-0.8V73.2z"/>
			<path class="st2" d="M98.7,73.8h-1.6v-0.7h4v0.7h-1.6v4.6h-0.8V73.8z"/>
			<path class="st2" d="M103.1,73.2h0.8l2.2,5.2h-0.8l-0.5-1.3h-2.6l-0.5,1.3h-0.8L103.1,73.2z M103.5,73.9l-1,2.6h2.1L103.5,73.9z"
				/>
			<path class="st2" d="M106.9,73.2h1l2.3,4.2h0v-4.2h0.8v5.2h-1l-2.4-4.3h0v4.3h-0.8V73.2z"/>
			<path class="st2" d="M114.5,73.1c1.6,0,2.5,1.2,2.5,2.7c0,1.6-0.9,2.7-2.5,2.7c-1.6,0-2.5-1.1-2.5-2.7
				C112,74.3,112.9,73.1,114.5,73.1z M114.5,77.9c1.2,0,1.7-1,1.7-2c0-1.1-0.6-2.1-1.7-2c-1.2,0-1.7,1-1.7,2
				C112.8,76.9,113.3,77.9,114.5,77.9z"/>
			<path class="st2" d="M18.1,81.2h1.5c1.6,0,2.8,1,2.8,2.6c0,1.8-1.1,2.7-2.8,2.7h-1.5V81.2z M18.8,85.8h0.8c1.3,0,2-0.6,2-2
				c0-1.2-0.8-1.9-1.9-1.9h-0.9V85.8z"/>
			<path class="st2" d="M23.6,81.2h2.9v0.7h-2.2v1.5h2V84h-2v1.7h2.2v0.7h-2.9V81.2z"/>
			<path class="st2" d="M30.8,81.8h-1.6v-0.7h4v0.7h-1.6v4.6h-0.8V81.8z"/>
			<path class="st2" d="M33.9,81.2h1.3c1,0,2,0.2,2,1.4c0,0.6-0.5,1.1-1.1,1.2v0c0.2,0.1,0.3,0.2,0.5,0.5l1,2.1h-0.9L36,84.6
				c-0.2-0.5-0.5-0.5-0.9-0.5h-0.5v2.3h-0.8V81.2z M34.6,83.4h0.6c0.7,0,1.1-0.3,1.1-0.8c0-0.5-0.4-0.8-1.1-0.8h-0.7V83.4z"/>
			<path class="st2" d="M40.2,81.2H41l2.2,5.2h-0.8l-0.5-1.3h-2.6l-0.5,1.3h-0.8L40.2,81.2z M40.6,81.9l-1,2.6h2.1L40.6,81.9z"/>
			<path class="st2" d="M46.3,82c-0.4-0.2-0.6-0.2-1-0.2c-0.4,0-0.9,0.1-0.9,0.7c0,1,2.3,0.8,2.3,2.5c0,1.1-0.9,1.6-1.9,1.6
				c-0.4,0-0.7-0.1-1.1-0.2l0.1-0.7c0.3,0.1,0.7,0.3,1.1,0.3c0.4,0,1-0.2,1-0.9c0-1.2-2.3-0.8-2.3-2.5c0-0.9,0.7-1.4,1.7-1.4
				c0.3,0,0.8,0.1,1.1,0.2L46.3,82z"/>
			<path class="st2" d="M47.6,81.2H49c1.1,0,2,0.4,2,1.6c0,1.2-0.9,1.6-1.9,1.6h-0.7v2.1h-0.8V81.2z M48.4,83.7h0.7
				c0.5,0,1.1-0.2,1.1-0.9c0-0.7-0.7-0.9-1.2-0.9h-0.6V83.7z"/>
			<path class="st2" d="M51.9,81.2h0.8v4.6h2.2v0.7h-2.9V81.2z"/>
			<path class="st2" d="M57.3,81.2h0.8l2.2,5.2h-0.8l-0.5-1.3h-2.6l-0.5,1.3H55L57.3,81.2z M57.6,81.9l-1,2.6h2.1L57.6,81.9z"/>
			<path class="st2" d="M61,81.2h1l2.3,4.2h0v-4.2h0.8v5.2h-1l-2.4-4.3h0v4.3H61V81.2z"/>
			<path class="st2" d="M67.5,81.8h-1.6v-0.7h4v0.7h-1.6v4.6h-0.8V81.8z"/>
			<path class="st2" d="M70.6,81.2h2.9v0.7h-2.2v1.5h2V84h-2v1.7h2.2v0.7h-2.9V81.2z"/>
			<path class="st2" d="M76.8,81.2h1.5c1.6,0,2.8,1,2.8,2.6c0,1.8-1.1,2.7-2.8,2.7h-1.5V81.2z M77.6,85.8h0.8c1.3,0,2-0.6,2-2
				c0-1.2-0.8-1.9-1.9-1.9h-0.9V85.8z"/>
			<path class="st2" d="M82.3,81.2h2.9v0.7h-2.2v1.5h2V84h-2v1.7h2.2v0.7h-2.9V81.2z"/>
			<path class="st2" d="M88.6,81.2h0.8v2.2h2.5v-2.2h0.8v5.2h-0.8V84h-2.5v2.4h-0.8V81.2z"/>
			<path class="st2" d="M94.5,79.7h0.8l-1,1.1h-0.5L94.5,79.7z M93.9,81.2h0.8v5.2h-0.8V81.2z"/>
			<path class="st2" d="M100,82.1c-0.4-0.2-0.8-0.4-1.4-0.4c-1.2,0-2,0.9-2,2c0,1.2,0.9,2,2,2c0.5,0,0.7-0.1,0.8-0.1v-1.6h-1.1v-0.6
				h1.9v2.7c-0.3,0.1-0.8,0.2-1.6,0.2c-1.7,0-2.8-1.1-2.8-2.7c0-1.6,1.2-2.7,2.8-2.7c0.8,0,1.1,0.1,1.5,0.3L100,82.1z"/>
			<path class="st2" d="M103.1,81.2h0.8l2.2,5.2h-0.8l-0.5-1.3h-2.6l-0.5,1.3h-0.8L103.1,81.2z M103.5,81.9l-1,2.6h2.1L103.5,81.9z"
				/>
			<path class="st2" d="M106.8,81.2h1.5c1.6,0,2.8,1,2.8,2.6c0,1.8-1.1,2.7-2.8,2.7h-1.5V81.2z M107.6,85.8h0.8c1.3,0,2-0.6,2-2
				c0-1.2-0.8-1.9-1.9-1.9h-0.9V85.8z"/>
			<path class="st2" d="M114.5,81.1c1.6,0,2.5,1.2,2.5,2.7c0,1.6-0.9,2.7-2.5,2.7c-1.6,0-2.5-1.1-2.5-2.7
				C112,82.3,112.9,81.1,114.5,81.1z M114.5,85.9c1.2,0,1.7-1,1.7-2c0-1.1-0.6-2.1-1.7-2c-1.2,0-1.7,1-1.7,2
				C112.8,84.9,113.3,85.9,114.5,85.9z"/>
		</g>
	</g>
</g>
</svg>
