<?xml version="1.0" encoding="utf-8"?>
<!-- Generator: Adobe Illustrator 22.0.1, SVG Export Plug-In . SVG Version: 6.00 Build 0)  -->
<svg version="1.1" id="Capa_1" xmlns="http://www.w3.org/2000/svg" xmlns:xlink="http://www.w3.org/1999/xlink" x="0px" y="0px"
	 viewBox="0 0 49.7 49.7" style="enable-background:new 0 0 49.7 49.7;" xml:space="preserve">
<g>
	<path d="M28.8,23.9l-5.9-3.1c-0.3-0.1-0.6-0.1-0.9,0c-0.3,0.2-0.4,0.5-0.4,0.8v6.1c0,0.3,0.2,0.6,0.4,0.8c0.1,0.1,0.3,0.1,0.5,0.1
		c0.1,0,0.3,0,0.4-0.1l5.9-3.1c0.3-0.2,0.5-0.5,0.5-0.8C29.3,24.4,29.1,24,28.8,23.9z"/>
	<path d="M24.8,0C11.1,0,0,11.1,0,24.8c0,13.7,11.1,24.8,24.8,24.8c13.7,0,24.8-11.1,24.8-24.8C49.7,11.1,38.5,0,24.8,0z M38.8,27.2
		c0,3.1-0.5,4.8-1.6,5.9c-1.1,1.1-2.8,1.5-5.9,1.5H18.4c-6.4,0-7.5-2.5-7.5-7.4v-4.8c0-2.5,0-4.4,1-5.6c1-1.3,2.9-1.8,6.5-1.8h12.9
		c3.6,0,5.4,0.5,6.4,1.7c1,1.2,1.1,3.1,1.1,5.7V27.2z"/>
</g>
</svg>
