<?xml version="1.0" encoding="utf-8"?>
<!-- Generator: Adobe Illustrator 21.1.0, SVG Export Plug-In . SVG Version: 6.00 Build 0)  -->
<svg version="1.1" id="Capa_1" xmlns="http://www.w3.org/2000/svg" xmlns:xlink="http://www.w3.org/1999/xlink" x="0px" y="0px"
	 viewBox="0 0 511.6 511.6" style="enable-background:new 0 0 511.6 511.6;" xml:space="preserve">
<path d="M256.8,0C116.3,0,2,114.3,2,254.8s114.3,254.8,254.8,254.8s254.8-114.3,254.8-254.8C511.7,114.3,397.3,0,256.8,0z
	 M403.6,225.7L317.3,312c-2.1,2.1-4.7,3.2-7.6,3.2s-5.4-1.1-7.6-3.2c-2.1-2.1-3.2-4.7-3.2-7.6v-43.1h-37.7c-11,0-20.9,0.3-29.6,1
	c-8.7,0.7-17.4,1.9-26,3.6s-16.1,4.1-22.4,7.2c-6.3,3-12.3,6.9-17.8,11.7c-5.5,4.8-10,10.4-13.5,17s-6.2,14.4-8.2,23.3
	c-2,9-2.9,19.2-2.9,30.5c0,6.2,0.3,13.1,0.8,20.7c0,0.7,0.1,2,0.4,4c0.3,2,0.4,3.5,0.4,4.5c0,1.7-0.5,3.1-1.4,4.2
	c-1,1.1-2.3,1.7-4,1.7c-1.8,0-3.4-1-4.7-2.9c-0.8-1-1.5-2.2-2.2-3.7s-1.4-3.1-2.3-5.1c-0.8-1.9-1.4-3.3-1.8-4
	c-14.3-32-21.4-57.4-21.4-76c0-22.4,3-41.1,8.9-56.1C131.7,197.6,180.9,175,261,175h38v-43.1c0-2.9,1.1-5.4,3.2-7.6
	c2.1-2.1,4.7-3.2,7.6-3.2s5.4,1.1,7.6,3.2l86.3,86.3c2.1,2.1,3.2,4.7,3.2,7.6C406.8,221,405.7,223.5,403.6,225.7z"/>
</svg>
