<svg xmlns="http://www.w3.org/2000/svg" viewBox="0 0 234.032 90">
  <defs>
    <style>
      .cls-1 {
        fill: #e94d1f;
      }

      .cls-2 {
        fill: #858385;
      }
    </style>
  </defs>
  <g id="fha-logo" transform="translate(-0.012)">
    <g id="Group_8" data-name="Group 8" transform="translate(0.012)">
      <path id="Path_61" data-name="Path 61" class="cls-1" d="M26.157,36.893C26.557,20.347,39.233,7.537,45.971,2,35.3,3.534,25.022,6.737,17.484,12.608-11.4,35.291,1,84.194,15.682,80.658c6.4-1.534,12.609-7.005,19.148-13.076C31.561,63.179,25.756,53.1,26.157,36.893Z" transform="translate(-0.012 -0.666)"/>
      <path id="Path_62" data-name="Path 62" class="cls-1" d="M126.106,15.074A41.791,41.791,0,0,0,118.5,38.625c8.673-5.271,16.746-11.942,21.082-21.883,3.336-7.672,1-10.608-1.067-11.742A27.96,27.96,0,0,0,126.106,15.074Z" transform="translate(-39.449 -1.664)"/>
      <path id="Path_63" data-name="Path 63" class="cls-1" d="M80.248,0c-3.336.067-6.805.267-10.208.534-4,4.4-15.145,17.346-16.212,27.687C52.294,41.764,56.1,52.639,61.368,58.71a1.218,1.218,0,0,0,1.735,0,1.393,1.393,0,0,0,.2-1.735c-2.068-3.669-4.6-10.941-4-24.151C60.033,16.612,73.51,4.87,80.248,0Z" transform="translate(-17.81)"/>
      <path id="Path_64" data-name="Path 64" class="cls-1" d="M92.513,0C88.31,3.6,78.1,13.677,75.967,27.887a36.085,36.085,0,0,0,3.469,22.55s.2.667,1.067.267a.991.991,0,0,0,.534-1.268c-.8-4.8-2.068-17.613,3.87-30.022C89.044,10.741,96.916,4.4,103.187.467,99.918.2,96.249.067,92.513,0Z" transform="translate(-25.137)"/>
      <path id="Path_65" data-name="Path 65" class="cls-1" d="M115.89,1.2c-3.936,3.069-10.875,9.407-14.544,18.213-3.6,8.673-3.336,19.148-2.8,25.019,0,0,.267,1.134,1.6.534a2.98,2.98,0,0,0,1.534-2.2,59.424,59.424,0,0,1,5.938-22.417c4.937-10.141,13.744-15.745,18.214-18.08C123.5,2.067,120.093,1.6,115.89,1.2Z" transform="translate(-32.703 -0.399)"/>
    </g>
    <g id="Group_9" data-name="Group 9" transform="translate(57.647 50.638)">
      <path id="Path_66" data-name="Path 66" class="cls-2" d="M89.936,86.541V80.07c0-1.067-.334-1.6-.934-1.6a1.3,1.3,0,0,0-.467.067,3.829,3.829,0,0,1-.8.067,1.594,1.594,0,0,1-.934-.334,1.12,1.12,0,0,1-.4-.934c0-.867.534-1.334,1.6-1.334h.467l1.8.2a5.739,5.739,0,0,0,1.067.067h1.2c.467,0,1.468,0,2.936-.067l3.136-.133h0l1.4-.067h.867c1.268,0,1.868.534,1.868,1.668a2.5,2.5,0,0,1-.067.667,3.524,3.524,0,0,0-.067.867c0,.334-.067.6-.067.867s-.067.467-.067.6v.467a1.658,1.658,0,0,0,.067.534,2.5,2.5,0,0,0,.067.667v.667c0,1-.467,1.468-1.4,1.468s-1.468-.534-1.468-1.668V80.537c0-.8-.2-1.268-.534-1.4a10.488,10.488,0,0,0-3.6-.334,5.3,5.3,0,0,0-2.535.334,6.641,6.641,0,0,0-.133,2.2v2a.96.96,0,0,0,.133.6,1.359,1.359,0,0,0,.734.133h.867c.867,0,1.268-.267,1.268-.867v-.4c0-.133-.067-.267-.067-.4a.846.846,0,0,0-.067-.4v-.334a1.238,1.238,0,0,1,1.4-1.4c.934,0,1.334.534,1.334,1.534v.667l-.133,1.468a3.829,3.829,0,0,0-.067.8v.534a15.53,15.53,0,0,0,.267,2.735,6.861,6.861,0,0,1,.067,1.134,1.238,1.238,0,0,1-1.4,1.4c-.934,0-1.334-.534-1.334-1.468v-.8a1.135,1.135,0,0,1,.067-.467v-.334a.91.91,0,0,0-.334-.8,1.987,1.987,0,0,0-.934-.133h-.8a1.49,1.49,0,0,0-.8.133c-.067.067-.067.334-.067.934v3.2a3.027,3.027,0,0,0,.2,1.4c.133.267.334.334.734.334H95.14c1.134,0,1.668.4,1.668,1.268a1.211,1.211,0,0,1-.4.934,1.31,1.31,0,0,1-1,.334,1.847,1.847,0,0,1-.6-.067c-.2,0-.467-.067-.734-.067a7.39,7.39,0,0,0-1.268-.133c-.467,0-.867-.067-1.334-.067-.6,0-1.268.067-2,.133l-.934.133h-.4c-1.067,0-1.668-.467-1.668-1.334,0-.8.4-1.2,1.268-1.2H88.4a.4.4,0,0,1,.267.067h.267a.736.736,0,0,0,.667-.334,2.731,2.731,0,0,0,.2-1.268Z" transform="translate(-86.4 -75.933)"/>
      <path id="Path_67" data-name="Path 67" class="cls-2" d="M125.476,97.177c-.734,0-1.134-.267-1.2-.867a5.522,5.522,0,0,1-3.669,1.2c-2.268,0-3.8-.734-4.67-2.135a3.486,3.486,0,0,1-.467-1,3.389,3.389,0,0,1-.2-1.134v-4.47c0-2.135-.133-3.269-.334-3.269H114.8a.5.5,0,0,0-.267.067,2.359,2.359,0,0,1-.4.067h-.2c-.934,0-1.334-.4-1.334-1.268q0-1.2,1.6-1.2h.334a8804459649367.018,8804459649367.018,0,0,0,.8.133H116a1.3,1.3,0,0,0,.467-.067.245.245,0,0,0,.2-.067h.267c.867,0,1.268.467,1.268,1.334v2.268l-.067,1.935v1.668a16.9,16.9,0,0,0,.067,1.935,5.213,5.213,0,0,0,.267,1.268,2.333,2.333,0,0,0,2.469,1.4,3.081,3.081,0,0,0,1.735-.467,2.1,2.1,0,0,0,1.067-1.2,11.128,11.128,0,0,0,.4-3.736v-3.2c-.067-.6-.133-.867-.267-.867a1.174,1.174,0,0,0-.4.067h-.4c-.934,0-1.334-.4-1.334-1.2,0-.867.467-1.268,1.468-1.268h.334a7294.676,7294.676,0,0,1,.8.133h.867a.6.6,0,0,0,.334-.067c.133-.067.2,0,.334,0a1.11,1.11,0,0,1,1.268,1.2,2.056,2.056,0,0,1-.067.667h0a6.487,6.487,0,0,0-.067,1.2c0,.467-.067,1.067-.067,1.668v5.738c.067.734.2,1.134.267,1.134h.2a.726.726,0,0,0,.334-.067,2.359,2.359,0,0,1,.4-.067h.2c.934,0,1.334.4,1.334,1.2,0,.867-.534,1.268-1.534,1.268h-.734a4.985,4.985,0,0,0-.734-.067h-.467A2.837,2.837,0,0,1,125.476,97.177Z" transform="translate(-95.12 -78.296)"/>
      <path id="Path_68" data-name="Path 68" class="cls-2" d="M143.137,82.967a1.064,1.064,0,0,1,1.2.867,5.619,5.619,0,0,1,3.8-1.334,5.714,5.714,0,0,1,2.936.8h0a4.286,4.286,0,0,1,1.935,2,6.591,6.591,0,0,1,.4,2.469v6.338c0,.267.067.467.2.534h.334a.5.5,0,0,0,.334-.067.4.4,0,0,0,.267-.067h.267a1.405,1.405,0,0,1,.867.334,1.043,1.043,0,0,1,.4.8,1.082,1.082,0,0,1-.467.934,1.636,1.636,0,0,1-1.067.4h-.4a1.847,1.847,0,0,1-.6-.067,4.1,4.1,0,0,0-.934-.067c-.334,0-.6-.067-.867-.067h-.6a1.469,1.469,0,0,0-.534.067c-.4.067-.734.067-1,.133a2.367,2.367,0,0,0-.467.067c-1,0-1.468-.467-1.468-1.334,0-.8.467-1.2,1.334-1.2h.6a.245.245,0,0,1,.2.067h.267c.133,0,.2-.334.2-1.067V88.571a12.011,12.011,0,0,0-.133-1.868,1.481,1.481,0,0,0-.334-.734,4.316,4.316,0,0,0-.534-.6h0a2.746,2.746,0,0,0-1.668-.534,2.884,2.884,0,0,0-2.669,1.334,6.7,6.7,0,0,0-.534,3.336v3.469a5.808,5.808,0,0,0,.067,1.268c.067.2.133.334.267.334h.133a2.89,2.89,0,0,1,.334-.067.6.6,0,0,1,.334-.067h.4a1.1,1.1,0,0,1,1.268,1.268c0,.867-.534,1.268-1.468,1.268a2.146,2.146,0,0,1-.534-.067c-.267-.067-.6-.067-.934-.133a7.252,7.252,0,0,0-1.2-.067h-.6c-.2,0-.534.067-.8.067l-.6.067a1.135,1.135,0,0,1-.467.067h-.267c-1.067,0-1.534-.4-1.534-1.268,0-.8.4-1.2,1.268-1.2h.267a.245.245,0,0,1,.2.067,2.736,2.736,0,0,0,.734.067c.2,0,.334-.4.334-1.134V87.3l-.067-.934a8.2,8.2,0,0,0-.133-.867.713.713,0,0,0-.2-.334.5.5,0,0,0-.267.067,77337.219,77337.219,0,0,0-.667.133H140q-1.4,0-1.4-1.2t1.6-1.2h.2a.245.245,0,0,1,.2.067l.934.133h.334a.5.5,0,0,0,.334-.067.846.846,0,0,0,.4-.067A1.878,1.878,0,0,1,143.137,82.967Z" transform="translate(-103.774 -78.097)"/>
      <path id="Path_69" data-name="Path 69" class="cls-2" d="M172.7,80.337a5.876,5.876,0,0,1,1.935.334,5.728,5.728,0,0,1,1.534.867V79.269c0-.2,0-.334-.067-.4a1.028,1.028,0,0,0-.2-.467.725.725,0,0,0-.334.067h-.267a.6.6,0,0,1-.334.067h-.334c-.934,0-1.468-.4-1.468-1.2s.6-1.268,1.8-1.268h.734l.8.067h.267a32826.617,32826.617,0,0,0,.8-.133h.334c.8,0,1.2.467,1.2,1.468v1.668c0,.133,0,.8-.067,2.068v4.6l.067,4.4c0,.6.067,1.067.067,1.4s.067.534.067.667.067.133.2.133h.267a.245.245,0,0,0,.2-.067h.667q1.4,0,1.4,1.2c0,.867-.534,1.268-1.668,1.268h-.4a1.135,1.135,0,0,1-.467-.067h-.267a.4.4,0,0,1-.267-.067h-.734a2.27,2.27,0,0,1-.667.067,1.078,1.078,0,0,1-1.134-.867,5.4,5.4,0,0,1-3.669,1.2,5.715,5.715,0,0,1-4.67-2.068,7.684,7.684,0,0,1-1.735-5.337,8.851,8.851,0,0,1,.467-3,7.805,7.805,0,0,1,1.268-2.335A6.187,6.187,0,0,1,172.7,80.337Zm3.269,9.607a4.416,4.416,0,0,0,.067-1v-1.2a8.114,8.114,0,0,0-.067-1.4c0-.4-.067-.667-.067-.867a2.7,2.7,0,0,0-1-1.868,3.405,3.405,0,0,0-2.135-.8,2.9,2.9,0,0,0-2.535,1.268,6.168,6.168,0,0,0-.934,3.536,6.333,6.333,0,0,0,.934,3.669,3.165,3.165,0,0,0,2.6,1.334,3.129,3.129,0,0,0,2.068-.734A2.4,2.4,0,0,0,175.974,89.944Z" transform="translate(-112.994 -75.933)"/>
      <path id="Path_70" data-name="Path 70" class="cls-2" d="M203.009,97.178a2.887,2.887,0,0,1-2.8-1.4,5.447,5.447,0,0,1-4.07,1.468A5.8,5.8,0,0,1,192.4,96.11a3.741,3.741,0,0,1-1.4-3.069,3.592,3.592,0,0,1,.6-2.068,4.627,4.627,0,0,1,1.534-1.468,5.024,5.024,0,0,1,1.334-.534c.334-.067,1.067-.2,2.135-.334a6.4,6.4,0,0,0,2.669-.6,1.408,1.408,0,0,0,.467-1.268,1.723,1.723,0,0,0-.6-1.4,2.691,2.691,0,0,0-1.735-.534,3.53,3.53,0,0,0-2,.6h0l-.2.2h0a1.515,1.515,0,0,1,.6,1.2,1.425,1.425,0,0,1-.534,1.134,2.106,2.106,0,0,1-1.268.467,1.962,1.962,0,0,1-1.468-.6,1.92,1.92,0,0,1-.6-1.4,3.219,3.219,0,0,1,1.668-2.8,6.566,6.566,0,0,1,3.8-1.134c3.469,0,5.271,1.668,5.271,5v6.271a1.147,1.147,0,0,0,.067.534c.067.4.267.6.467.6.334,0,.467-.467.467-1.334V92.241c0-.8.4-1.2,1.268-1.2s1.334.534,1.334,1.6v1.6C206.078,96.244,205.077,97.178,203.009,97.178Zm-3.336-6.6c-.133.067-.2.067-.334.133s-.2.067-.334.133a17.813,17.813,0,0,1-2.335.4c-1.735.133-2.6.8-2.6,1.868a1.465,1.465,0,0,0,.6,1.268,2.486,2.486,0,0,0,1.668.467,3.285,3.285,0,0,0,2.468-.867,3.385,3.385,0,0,0,.934-2.335Z" transform="translate(-121.215 -78.097)"/>
      <path id="Path_71" data-name="Path 71" class="cls-2" d="M220.6,83.639h7.606V80.1c0-1.067-.267-1.668-.867-1.668h-.133a.4.4,0,0,0-.267.067h0a.846.846,0,0,1-.4.067h-.467c-.867,0-1.334-.4-1.334-1.268s.534-1.334,1.6-1.334c.267,0,.8.067,1.468.133.334.067.667.067.934.133h2.068a9.043,9.043,0,0,0,1.334-.133,2.5,2.5,0,0,1,.667-.067h.4c1.067,0,1.668.467,1.668,1.334,0,.8-.467,1.2-1.334,1.2h-.334a.5.5,0,0,1-.334-.067.846.846,0,0,1-.4-.067c-.133,0-.267,0-.267-.067-.534,0-.8.534-.8,1.668V90.711c0,1.067.267,1.6.867,1.6h.667l.667-.067c.867,0,1.334.4,1.334,1.2,0,.867-.534,1.334-1.668,1.334-.267,0-.6-.067-1.134-.133a8.621,8.621,0,0,0-1.935-.2,21.4,21.4,0,0,0-2.4.133,6.219,6.219,0,0,1-.934.133,2.367,2.367,0,0,0-.467.067c-1.067,0-1.6-.467-1.6-1.334a1.179,1.179,0,0,1,1.334-1.268h.2c.133,0,.334.067.467.067h.6c.534,0,.8-.4.867-1.134v-5h-7.606v5c.133.734.4,1.134.867,1.134h.6l.734-.067c.867,0,1.268.4,1.268,1.2,0,.867-.534,1.334-1.668,1.334-.2,0-.6-.067-1.2-.133a7.352,7.352,0,0,0-1.2-.133,5.394,5.394,0,0,0-1-.067,6.472,6.472,0,0,0-1.134.067c-.4.067-.8.067-1.2.133l-.667.133c-.067,0-.133,0-.133.067h-.267c-1.134,0-1.668-.467-1.668-1.334a1.174,1.174,0,0,1,.4-.867,1.211,1.211,0,0,1,.934-.4h.334a.5.5,0,0,1,.334.067,2.3,2.3,0,0,0,.6.067c.6,0,.934-.534.934-1.6V80.036c0-1.067-.334-1.668-.934-1.668h-.133a.245.245,0,0,0-.2.067,1.136,1.136,0,0,1-.467.067h-.4a1.317,1.317,0,0,1-.934-.4,1.174,1.174,0,0,1-.4-.867c0-.867.534-1.334,1.668-1.334h.4c.133,0,.334.067.534.067h.133a11.512,11.512,0,0,0,2.4.2c.334,0,.867-.067,1.6-.133a8.941,8.941,0,0,1,1.668-.133c1.067,0,1.668.467,1.668,1.334a1.211,1.211,0,0,1-.4.934,1.446,1.446,0,0,1-.934.334h-.467c-.133,0-.334-.067-.467-.067h-.4a.67.67,0,0,0-.667.4,2.788,2.788,0,0,0-.2,1.2Z" transform="translate(-128.87 -75.9)"/>
      <path id="Path_72" data-name="Path 72" class="cls-2" d="M252.2,90.31v1.534c.067.534.133.8.267.8h.133c.133,0,.267-.067.4-.067h0c.067,0,.133-.067.2-.067h.334c.934,0,1.468.4,1.468,1.2a1.082,1.082,0,0,1-.467.934,1.64,1.64,0,0,1-1.134.334h-.534c-.2,0-.467-.067-.8-.067a2.992,2.992,0,0,0-.734-.067c-.2,0-.4-.067-.534-.067h-.667c-.267,0-.534.067-.8.067a4.1,4.1,0,0,1-.867.067c-.2,0-.4.067-.6.067-1,0-1.468-.4-1.468-1.268,0-.8.467-1.2,1.334-1.2h.334a2.359,2.359,0,0,1,.4.067.6.6,0,0,0,.334.067h.133c.133,0,.267-.467.334-1.334V84.639c-.067-.867-.133-1.334-.334-1.334h-.2a2.891,2.891,0,0,1-.334.067.5.5,0,0,1-.334.067H247.8q-1.4,0-1.4-1.2c0-.8.534-1.268,1.6-1.268h.8a2.5,2.5,0,0,0,.667.067h.6a.5.5,0,0,0,.334-.067l.734-.067q1.2,0,1.2,1.4V90.31Zm-1.868-9.941A1.863,1.863,0,0,1,249,79.836a1.627,1.627,0,0,1-.534-1.334A1.708,1.708,0,0,1,249,77.234a1.984,1.984,0,0,1,1.334-.534,2.153,2.153,0,0,1,1.4.534,1.643,1.643,0,0,1,.6,1.268,1.778,1.778,0,0,1-.6,1.334A1.856,1.856,0,0,1,250.336,80.369Z" transform="translate(-139.654 -76.166)"/>
      <path id="Path_73" data-name="Path 73" class="cls-2" d="M266.905,81.3h.6c.2,0,.4.067.6.067a2.761,2.761,0,0,1,1.067-1.8,3.482,3.482,0,0,1,2.335-.667,3.752,3.752,0,0,1,2.335.734,2.338,2.338,0,0,1,.934,1.868,1.863,1.863,0,0,1-.534,1.334,1.823,1.823,0,0,1-1.268.534,1.636,1.636,0,0,1-1.067-.4,1.165,1.165,0,0,1-.467-.934,1.135,1.135,0,0,1,.067-.467.889.889,0,0,1,.334-.4c-.067-.067-.133-.067-.267-.067-.067,0-.133-.067-.267-.067q-.9,0-1,1.2a4.369,4.369,0,0,1,1.468,1.668,4.541,4.541,0,0,1,.534,2.068,4.376,4.376,0,0,1-1.534,3.336,5.393,5.393,0,0,1-3.669,1.334,12.956,12.956,0,0,1-1.6-.133,7.522,7.522,0,0,1-1.6-.534c-.267-.067-.467-.133-.534-.133a.367.367,0,0,0-.334.2.719.719,0,0,0-.133.534c0,.667.8,1,2.335,1h.934a12.383,12.383,0,0,1,4.2.534,6.024,6.024,0,0,1,2.535,1.534,3.455,3.455,0,0,1,.934,2.335,3.384,3.384,0,0,1-.467,1.868,4.67,4.67,0,0,1-1.4,1.4,6.6,6.6,0,0,1-2.2.867,13.152,13.152,0,0,1-2.936.334,9.842,9.842,0,0,1-5.07-1.134,3.566,3.566,0,0,1-1.868-3.136,3.246,3.246,0,0,1,1.935-3,2.768,2.768,0,0,1-1.668-2.535,2.715,2.715,0,0,1,.534-1.6,4.029,4.029,0,0,1,1.4-1.134,2.825,2.825,0,0,1-.4-.934,5.05,5.05,0,0,1-.067-1,4.241,4.241,0,0,1,1.534-3.269A4.927,4.927,0,0,1,266.905,81.3Zm.133,12.676a7.332,7.332,0,0,0-3,.534,1.581,1.581,0,0,0-1.067,1.4,1.516,1.516,0,0,0,1.067,1.4,6.874,6.874,0,0,0,2.869.534,7.332,7.332,0,0,0,3-.534,1.516,1.516,0,0,0,1.067-1.4,1.661,1.661,0,0,0-1.067-1.468A8.007,8.007,0,0,0,267.039,93.978Zm-.067-10.208a2.439,2.439,0,0,0-1.668.6,1.864,1.864,0,0,0-.734,1.468v.133a1.978,1.978,0,0,0,.667,1.6,2.494,2.494,0,0,0,1.735.6,2.854,2.854,0,0,0,1.868-.6,1.978,1.978,0,0,0,.667-1.6,2.03,2.03,0,0,0-.734-1.6A2.67,2.67,0,0,0,266.972,83.77Z" transform="translate(-144.148 -76.899)"/>
      <path id="Path_74" data-name="Path 74" class="cls-2" d="M294.309,97.178a2.887,2.887,0,0,1-2.8-1.4,5.446,5.446,0,0,1-4.07,1.468A5.8,5.8,0,0,1,283.7,96.11a3.741,3.741,0,0,1-1.4-3.069,3.592,3.592,0,0,1,.6-2.068,4.627,4.627,0,0,1,1.534-1.468,5.024,5.024,0,0,1,1.334-.534c.334-.067,1.067-.2,2.135-.334a6.4,6.4,0,0,0,2.669-.6,1.407,1.407,0,0,0,.467-1.268,1.723,1.723,0,0,0-.6-1.4,2.691,2.691,0,0,0-1.735-.534,3.53,3.53,0,0,0-2,.6h0l-.2.2h0a1.515,1.515,0,0,1,.6,1.2,1.425,1.425,0,0,1-.534,1.134,2.106,2.106,0,0,1-1.268.467,1.962,1.962,0,0,1-1.468-.6,1.92,1.92,0,0,1-.6-1.4,3.219,3.219,0,0,1,1.668-2.8,6.566,6.566,0,0,1,3.8-1.134c3.469,0,5.271,1.668,5.271,5v6.271a1.147,1.147,0,0,0,.067.534c.067.4.267.6.467.6.334,0,.467-.467.467-1.334V92.241c0-.8.4-1.2,1.268-1.2s1.334.534,1.334,1.6v1.6C297.378,96.244,296.377,97.178,294.309,97.178Zm-3.336-6.6c-.133.067-.2.067-.334.133s-.2.067-.334.133a17.813,17.813,0,0,1-2.335.4c-1.735.133-2.6.8-2.6,1.868a1.465,1.465,0,0,0,.6,1.268,2.486,2.486,0,0,0,1.668.467,3.285,3.285,0,0,0,2.469-.867,3.385,3.385,0,0,0,.934-2.335Z" transform="translate(-151.603 -78.097)"/>
      <path id="Path_75" data-name="Path 75" class="cls-2" d="M312.4,80.322a5.876,5.876,0,0,1,1.935.334,5.728,5.728,0,0,1,1.534.867V79.254c0-.2,0-.334-.067-.4a1.028,1.028,0,0,0-.2-.467.725.725,0,0,0-.334.067h-.267a.6.6,0,0,1-.334.067h-.334c-.934,0-1.468-.4-1.468-1.2s.6-1.268,1.8-1.268h.734l.8.067h.267a32828.6,32828.6,0,0,1,.8-.133c.133-.067.267,0,.334,0,.8,0,1.2.467,1.2,1.468v1.668c0,.133,0,.8-.067,2.068v4.6l.067,4.4c0,.6.067,1.067.067,1.4s.067.534.067.667.067.133.2.133h.267a.245.245,0,0,0,.2-.067h.667q1.4,0,1.4,1.2c0,.867-.534,1.268-1.668,1.268h-.4a1.135,1.135,0,0,1-.467-.067h-.267a.4.4,0,0,1-.267-.067h-.734a2.27,2.27,0,0,1-.667.067,1.078,1.078,0,0,1-1.134-.867,5.4,5.4,0,0,1-3.669,1.2A5.715,5.715,0,0,1,307.735,93,7.684,7.684,0,0,1,306,87.661a8.85,8.85,0,0,1,.467-3,7.805,7.805,0,0,1,1.268-2.335A6.293,6.293,0,0,1,312.4,80.322Zm3.336,9.607a4.416,4.416,0,0,0,.067-1v-1.2a8.114,8.114,0,0,0-.067-1.4,4.429,4.429,0,0,1-.067-.867,2.7,2.7,0,0,0-1-1.868,3.405,3.405,0,0,0-2.135-.8A2.9,2.9,0,0,0,310,84.058a6.168,6.168,0,0,0-.934,3.536A6.333,6.333,0,0,0,310,91.263a3.165,3.165,0,0,0,2.6,1.334,3.129,3.129,0,0,0,2.068-.734A2.4,2.4,0,0,0,315.741,89.929Z" transform="translate(-159.491 -75.918)"/>
      <path id="Path_76" data-name="Path 76" class="cls-2" d="M337.538,97.344a6,6,0,0,1-4.737-2,7.716,7.716,0,0,1-1.8-5.337,7.6,7.6,0,0,1,1.8-5.337,5.983,5.983,0,0,1,4.8-2.068,6.193,6.193,0,0,1,4.87,2,7.9,7.9,0,0,1,1.735,5.337,7.777,7.777,0,0,1-1.8,5.4A6.32,6.32,0,0,1,337.538,97.344Zm.2-12.342a3.054,3.054,0,0,0-2.6,1.2,6.057,6.057,0,0,0-1,3.4v.334a6.249,6.249,0,0,0,.934,3.6,3,3,0,0,0,2.6,1.334,3.141,3.141,0,0,0,2.669-1.268,5.86,5.86,0,0,0,1-3.669C341.274,86.67,340.073,85,337.738,85Z" transform="translate(-167.812 -78.13)"/>
    </g>
    <g id="Group_10" data-name="Group 10" transform="translate(56.646 71.586)">
      <path id="Path_77" data-name="Path 77" class="cls-2" d="M97.643,119.642a.713.713,0,0,0-.2-.334c-.067-.067-.2-.067-.4-.067H92.506a.964.964,0,0,0-.467.133,2.419,2.419,0,0,0-.334.8l-.734,2a.846.846,0,0,0-.067.4c0,.334.2.467.534.467h.267a.992.992,0,0,0,.4-.067.846.846,0,0,0,.4-.067h.334c1,0,1.468.4,1.468,1.268q0,1.2-1.6,1.2h-.267a.4.4,0,0,1-.267-.067h-.133l-1.268-.2a1.3,1.3,0,0,1-.467-.067H88.9c-.2,0-.4,0-.467.067l-1.067.133a2.058,2.058,0,0,1-.6.067H86.3q-1.4,0-1.4-1.2c0-.8.467-1.268,1.4-1.268h.2a.245.245,0,0,1,.2.067h.267a.734.734,0,0,0,.667-.4,4.007,4.007,0,0,0,.467-1.134l4.737-12.809a1.92,1.92,0,0,1,2-1.268,1.861,1.861,0,0,1,1.935,1.268l4.537,12.609a6.943,6.943,0,0,0,.667,1.4.782.782,0,0,0,.734.334h1c1,0,1.468.4,1.468,1.2s-.467,1.2-1.4,1.2h-.867a12.221,12.221,0,0,0-1.4-.133c-.4,0-.734-.067-.934-.067a8.094,8.094,0,0,0-1.2.067c-.534.067-1.134.067-1.8.133h-.867c-1,0-1.468-.4-1.468-1.2s.534-1.2,1.534-1.2h.334a65653.132,65653.132,0,0,1,.8.133h.267c.267,0,.4-.133.4-.334v-.133c0-.067-.067-.133-.067-.2l-.067-.267h0Zm-4.8-2.735a.065.065,0,0,0-.067-.067h.067Zm0,.133v-.067h0v.067Zm0,0Zm1.935-5.938c-.334.934-.667,1.935-1,2.869s-.667,1.935-.934,2.869h3.8v-.067Zm1.935,5.871h0c0-.067-.067-.067-.067-.133h.133C96.775,116.907,96.709,116.907,96.709,116.974Z" transform="translate(-84.9 -107.3)"/>
      <path id="Path_78" data-name="Path 78" class="cls-2" d="M119.77,114.067a.971.971,0,0,1,1.067.8,4.794,4.794,0,0,1,1.468-1,6.23,6.23,0,0,1,4,.133,4.381,4.381,0,0,1,1.534,1.2,8.025,8.025,0,0,1,1.735-1.2,5.985,5.985,0,0,1,2.268-.4,5.364,5.364,0,0,1,2.735.667,4.44,4.44,0,0,1,1.935,2.068,4.729,4.729,0,0,1,.267,1.134,11.822,11.822,0,0,1,.067,1.6v5.537q.1.6.2.6a1.174,1.174,0,0,0,.4-.067h.467c.2,0,.267-.067.2-.067.867.067,1.268.4,1.268,1.067,0,.8-.467,1.268-1.4,1.268h-.534c-.2,0-.467-.067-.734-.067a8.188,8.188,0,0,0-1.134-.067h-.534a2.269,2.269,0,0,0-.667.067,2.736,2.736,0,0,1-.734.067h-.534c-1,0-1.468-.4-1.468-1.268,0-.734.4-1.067,1.2-1.067h.867a.143.143,0,0,0,.133-.133,10.587,10.587,0,0,0,.133-2.068V119.6a10.669,10.669,0,0,0-.2-2.4,1.83,1.83,0,0,0-.867-1.134,2.467,2.467,0,0,0-1.4-.4,2.286,2.286,0,0,0-2.135,1.067,7.224,7.224,0,0,0-.534,3.269v3.669c0,.467.067.867.067,1.067.067.2.067.267.2.267h.4a2.89,2.89,0,0,1,.334-.067h.2a1.268,1.268,0,0,1,.867.334,1.024,1.024,0,0,1,.334.867q0,1.2-1.6,1.2h-.534c-.2,0-.4-.067-.667-.067a2.3,2.3,0,0,0-.6-.067h-.934c-.2,0-.4.067-.6.067a1.847,1.847,0,0,1-.6.067h-.534c-1,0-1.468-.4-1.468-1.2,0-.734.4-1.134,1.2-1.134a1.3,1.3,0,0,1,.534.067c.133,0,.2,0,.267.067a.092.092,0,0,0,.133,0c.133,0,.2-.334.2-.934v-4.87a11.248,11.248,0,0,0-.133-1.668,2.857,2.857,0,0,0-.4-1.134,1.892,1.892,0,0,0-.667-.6,2.54,2.54,0,0,0-1.067-.2,2.47,2.47,0,0,0-2.2,1.067,5.306,5.306,0,0,0-.667,3.2v4.47c.067.334.067.534.133.534a1.867,1.867,0,0,0,.4-.067h.467q1.4,0,1.4,1.2c0,.8-.534,1.2-1.534,1.2a7.274,7.274,0,0,1-1.134-.067,3.248,3.248,0,0,0-.8-.067h-.667a7.872,7.872,0,0,0-1.067.067,4.786,4.786,0,0,1-.867.067h-.467q-1.4,0-1.4-1.2c0-.734.467-1.134,1.4-1.134h.334l.734.133c.133-.067.2-.4.267-.867v-5.337a11.858,11.858,0,0,0-.067-1.668c0-.4-.067-.734-.067-.934s-.067-.267-.2-.267l-.267.067-.4.067h-.467c-.934,0-1.334-.4-1.334-1.2s.467-1.2,1.4-1.2h.334a.846.846,0,0,1,.4.067,1.3,1.3,0,0,1,.467.067h.867Z" transform="translate(-95.018 -109.397)"/>
      <path id="Path_79" data-name="Path 79" class="cls-2" d="M165.709,119.571v.934a1.257,1.257,0,0,1-.133.534.4.4,0,0,1-.4.2c-.2,0-.4.067-.734.067H156.3a3.824,3.824,0,0,0,1.067,2.869,3.2,3.2,0,0,0,2.468,1.134,3.355,3.355,0,0,0,1.8-.534,2.6,2.6,0,0,0,1.067-1.334l.267-.734a2.4,2.4,0,0,1,.467-.667,1.4,1.4,0,0,1,.734-.267,1.219,1.219,0,0,1,1.4,1.334,3.935,3.935,0,0,1-1.868,3.2,6.712,6.712,0,0,1-4,1.334,5.7,5.7,0,0,1-4.537-1.868,7.538,7.538,0,0,1-1.668-5,8.024,8.024,0,0,1,1.735-5.2,6.014,6.014,0,0,1,4.67-2.068,6.344,6.344,0,0,1,2.335.4,4.9,4.9,0,0,1,1.868,1.268A6.51,6.51,0,0,1,165.709,119.571Zm-2.936-.667a2.774,2.774,0,0,0-.867-2.068,2.88,2.88,0,0,0-2.068-.867,3.555,3.555,0,0,0-2.268.934,2.658,2.658,0,0,0-1,2Z" transform="translate(-107.733 -109.364)"/>
      <path id="Path_80" data-name="Path 80" class="cls-2" d="M177.636,114.067c.6,0,.934.2,1.067.667a4.762,4.762,0,0,1,3.136-1.134,5.113,5.113,0,0,1,1.8.267,4.8,4.8,0,0,1,1.4.8,3.691,3.691,0,0,1,.934,1.268,4.031,4.031,0,0,1,.334,1.6,2.971,2.971,0,0,1-.667,2.068,2.284,2.284,0,0,1-1.8.8,1.661,1.661,0,0,1-1.268-.467,1.527,1.527,0,0,1-.534-1.134,1.165,1.165,0,0,1,.467-.934,1.358,1.358,0,0,1,1-.4h.067v-.133a1.267,1.267,0,0,0-.534-1,2.053,2.053,0,0,0-1.268-.4,2.116,2.116,0,0,0-2.2,1.534,9.4,9.4,0,0,0-.4,3.136v3.4c.067.8.2,1.2.334,1.2h.267a.4.4,0,0,0,.267-.067,2.476,2.476,0,0,1,.6-.133c.8,0,1.2.4,1.2,1.134,0,.8-.467,1.268-1.468,1.268h-.6c-.2,0-.467-.067-.734-.067a7.876,7.876,0,0,0-1.067-.067H177.1a2.057,2.057,0,0,0-.667.067l-1.4.133c-1,0-1.468-.4-1.468-1.268,0-.734.467-1.134,1.4-1.134h.2a.245.245,0,0,1,.2.067l.334.067h.267c.133,0,.267-.267.267-.8v-1.334l-.067-5.738c-.067-.667-.133-1-.267-1.134h-.467a2.27,2.27,0,0,1-.667.067,1.11,1.11,0,0,1-1.268-1.2c0-.8.467-1.2,1.468-1.2a.893.893,0,0,1,.334.067.989.989,0,0,1,.467.067.846.846,0,0,1,.4.067h.867A1.8,1.8,0,0,0,177.636,114.067Z" transform="translate(-114.39 -109.397)"/>
      <path id="Path_81" data-name="Path 81" class="cls-2" d="M198.471,121.11v1.468c.067.534.133.8.267.8h.133c.133,0,.267-.067.4-.067h0c.067,0,.133-.067.2-.067h.334q1.4,0,1.4,1.2a.972.972,0,0,1-.467.867,1.908,1.908,0,0,1-1.134.334h-.534c-.2,0-.467-.067-.734-.067a2.5,2.5,0,0,0-.667-.067c-.2,0-.334-.067-.467-.067h-.667c-.267,0-.467.067-.734.067a3.829,3.829,0,0,1-.8.067c-.2,0-.4.067-.534.067q-1.4,0-1.4-1.2c0-.8.467-1.2,1.334-1.2h.334a2.359,2.359,0,0,1,.4.067.5.5,0,0,0,.267.067h.133c.133,0,.267-.4.267-1.268v-6.4c-.067-.8-.133-1.268-.334-1.268h-.2a2.89,2.89,0,0,1-.334.067.5.5,0,0,1-.334.067h-.267c-.934,0-1.334-.4-1.334-1.2s.534-1.2,1.534-1.2h.734a2.3,2.3,0,0,0,.6.067h.534a.6.6,0,0,0,.334-.067l.667-.067c.734,0,1.134.467,1.134,1.334v7.672Zm-1.735-9.474a1.984,1.984,0,0,1-1.334-.534,1.708,1.708,0,0,1-.534-1.268,1.718,1.718,0,0,1,1.868-1.735,1.923,1.923,0,0,1,1.334.467,1.708,1.708,0,0,1,.534,1.268,1.823,1.823,0,0,1-.534,1.268A1.984,1.984,0,0,1,196.736,111.636Z" transform="translate(-120.88 -107.566)"/>
      <path id="Path_82" data-name="Path 82" class="cls-2" d="M213.572,118.737a1.3,1.3,0,0,1,.267-.934,1.262,1.262,0,0,1,.934-.467,2.051,2.051,0,0,0-2.2-1.268,2.868,2.868,0,0,0-2.468,1.268,5.865,5.865,0,0,0-.934,3.4,5.944,5.944,0,0,0,.867,3.469,2.974,2.974,0,0,0,4.136.734,2.825,2.825,0,0,0,1-1.534l.334-1.067a1.27,1.27,0,0,1,1.2-.667,1.358,1.358,0,0,1,1,.4,1.211,1.211,0,0,1,.4.934,3.3,3.3,0,0,1-.467,1.6,9.546,9.546,0,0,1-1.067,1.6,5.331,5.331,0,0,1-1.8,1.2,5.415,5.415,0,0,1-2.335.467,5.705,5.705,0,0,1-4.47-1.935,7.48,7.48,0,0,1-1.668-4.937,7.741,7.741,0,0,1,1.668-5.2,5.96,5.96,0,0,1,4.67-2,5.646,5.646,0,0,1,3.669,1.2,3.7,3.7,0,0,1,1.468,3.069,2.67,2.67,0,0,1-.6,1.8,2.03,2.03,0,0,1-1.6.734,1.817,1.817,0,0,1-1.334-.467A2.086,2.086,0,0,1,213.572,118.737Z" transform="translate(-125.307 -109.463)"/>
      <path id="Path_83" data-name="Path 83" class="cls-2" d="M237.675,127.677a2.748,2.748,0,0,1-2.669-1.334,5.3,5.3,0,0,1-3.87,1.4,5.542,5.542,0,0,1-3.6-1.134,3.517,3.517,0,0,1-1.334-2.936,4.076,4.076,0,0,1,.534-2,3.708,3.708,0,0,1,1.468-1.4,3.984,3.984,0,0,1,1.268-.534c.334-.067,1-.2,2.068-.334a8.745,8.745,0,0,0,2.6-.534c.334-.2.467-.6.467-1.2a1.68,1.68,0,0,0-.6-1.334,2.5,2.5,0,0,0-1.668-.534,3.121,3.121,0,0,0-1.868.6h0l-.2.2h0a1.328,1.328,0,0,1,.534,1.134,1.244,1.244,0,0,1-.467,1.067,1.924,1.924,0,0,1-1.268.4,2.026,2.026,0,0,1-1.4-.534,1.627,1.627,0,0,1-.534-1.334,3.242,3.242,0,0,1,1.534-2.669,5.973,5.973,0,0,1,3.669-1.067c3.336,0,5,1.6,5,4.737v5.938c0,.2,0,.4.067.467q.1.6.4.6c.334,0,.467-.4.467-1.268v-1.268c0-.734.4-1.134,1.2-1.134.867,0,1.268.534,1.268,1.534v1.534C240.677,126.743,239.677,127.677,237.675,127.677Zm-3.136-6.338c-.133.067-.2.067-.334.133-.067.067-.2.067-.334.133a16.342,16.342,0,0,1-2.268.4c-1.668.133-2.468.734-2.468,1.8a1.549,1.549,0,0,0,.6,1.268,2.41,2.41,0,0,0,1.6.467,2.889,2.889,0,0,0,3.2-3.069Z" transform="translate(-131.93 -109.397)"/>
    </g>
  </g>
</svg>
