<?xml version="1.0" encoding="utf-8"?>
<!-- Generator: Adobe Illustrator 21.1.0, SVG Export Plug-In . SVG Version: 6.00 Build 0)  -->
<svg version="1.1" id="Capa_1" xmlns="http://www.w3.org/2000/svg" xmlns:xlink="http://www.w3.org/1999/xlink" x="0px" y="0px"
	 viewBox="0 0 496 496" style="enable-background:new 0 0 496 496;" xml:space="preserve">
<style type="text/css">
	.st0{fill:#4B6EBA;}
</style>
<g>
	<g>
		<path class="st0" d="M464,160c-17.6,0-32,14.4-32,32v89.3c0,7-3.1,13.7-8.4,18.2l-35.8,30.7c-4.4,3.7-9.9,5.8-15.6,5.8H344
			l31-34.8c5.8-6.5,9-15,9-23.7v-1.8c0-19.7-16-35.7-35.7-35.7c-10.1,0-19.8,4.3-26.5,11.8l-43.2,48C264,316,256,336.9,256,358.7
			V448h-16v-89.3c0-21.8-8-42.7-22.6-58.9l-43.2-48c-6.8-7.5-16.4-11.8-26.5-11.8c-19.7,0-35.7,16-35.7,35.7v1.8
			c0,8.7,3.2,17.2,9,23.7l31,34.8h-28.1c-5.7,0-11.3-2-15.6-5.8l-35.8-30.7c-5.3-4.6-8.4-11.2-8.4-18.2V192c0-17.6-14.4-32-32-32
			S0,174.4,0,192v100.8c0,24.6,10.4,48.2,28.5,64.9l54.5,50c8.2,7.6,13,18.3,13,29.5V448H80v48h160h16h160v-48h-16v-10.9
			c0-11.2,4.7-21.9,13-29.5l54.5-50c18.1-16.6,28.5-40.3,28.5-64.9V192C496,174.4,481.6,160,464,160z M240,480H96v-16h96v-16h-80
			v-10.9c0-15.7-6.6-30.7-18.2-41.3l-54.5-50c-14.8-13.5-23.3-32.9-23.3-53V192c0-8.8,7.2-16,16-16s16,7.2,16,16v89.3
			c0,11.7,5.1,22.8,14,30.4l35.8,30.7c7.2,6.2,16.5,9.6,26,9.6h42.3l11.8,13.3l12-10.6l-57-64.1c-3.2-3.6-5-8.2-5-13.1v-1.8
			c0-10.8,8.8-19.7,19.7-19.7c5.6,0,10.9,2.4,14.6,6.5l43.2,48c11.9,13.2,18.5,30.3,18.5,48.2V448h-16v16h32L240,480L240,480z
			 M480,292.8c0,20.1-8.5,39.5-23.3,53.1l-54.5,50c-11.5,10.6-18.2,25.6-18.2,41.3V448h-80v16h96v16H256v-16h32v-16h-16v-89.3
			c0-17.8,6.6-34.9,18.5-48.2l43.2-48c3.7-4.1,9.1-6.5,14.6-6.5c10.8,0,19.7,8.8,19.7,19.7v1.8c0,4.8-1.8,9.5-5,13.1l-57,64.1
			l12,10.6l11.8-13.3h42.3c9.5,0,18.8-3.4,26-9.6l35.8-30.7c8.9-7.6,14-18.7,14-30.4V192c0-8.8,7.2-16,16-16s16,7.2,16,16L480,292.8
			L480,292.8z"/>
	</g>
</g>
<g>
	<g>
		<path class="st0" d="M248,96c-8.8,0-16-7.2-16-16s7.2-16,16-16c8.8,0,16,7.2,16,16h16c0-14.9-10.2-27.3-24-30.9V32h-16v17.1
			c-13.8,3.6-24,16-24,30.9c0,17.6,14.4,32,32,32c8.8,0,16,7.2,16,16s-7.2,16-16,16s-16-7.2-16-16h-16c0,14.9,10.2,27.3,24,30.9V176
			h16v-17.1c13.8-3.6,24-16,24-30.9C280,110.4,265.6,96,248,96z"/>
	</g>
</g>
<g>
	<g>
		<path class="st0" d="M248,0c-57.3,0-104,46.7-104,104s46.7,104,104,104s104-46.7,104-104S305.3,0,248,0z M248,192
			c-48.5,0-88-39.5-88-88s39.5-88,88-88s88,39.5,88,88S296.5,192,248,192z"/>
	</g>
</g>
<g>
	<g>
		<path class="st0" d="M440,32c-30.9,0-56,25.1-56,56s25.1,56,56,56s56-25.1,56-56S470.9,32,440,32z M440,128c-22.1,0-40-17.9-40-40
			s17.9-40,40-40s40,17.9,40,40S462.1,128,440,128z"/>
	</g>
</g>
<g>
	<g>
		<polygon class="st0" points="448,80 448,64 432,64 432,80 416,80 416,96 432,96 432,112 448,112 448,96 464,96 464,80 		"/>
	</g>
</g>
<g>
	<g>
		<path class="st0" d="M56,32C25.1,32,0,57.1,0,88s25.1,56,56,56s56-25.1,56-56S86.9,32,56,32z M56,128c-22.1,0-40-17.9-40-40
			s17.9-40,40-40s40,17.9,40,40S78.1,128,56,128z"/>
	</g>
</g>
<g>
	<g>
		<polygon class="st0" points="64,80 64,64 48,64 48,80 32,80 32,96 48,96 48,112 64,112 64,96 80,96 80,80 		"/>
	</g>
</g>
<g>
	<g>
		<rect x="304" y="96" class="st0" width="16" height="16"/>
	</g>
</g>
<g>
	<g>
		<rect x="176" y="96" class="st0" width="16" height="16"/>
	</g>
</g>
<g>
	<g>
		<rect x="120" class="st0" width="16" height="16"/>
	</g>
</g>
<g>
	<g>
		<rect x="120" y="32" class="st0" width="16" height="16"/>
	</g>
</g>
<g>
	<g>
		<rect x="136" y="16" class="st0" width="16" height="16"/>
	</g>
</g>
<g>
	<g>
		<rect x="104" y="16" class="st0" width="16" height="16"/>
	</g>
</g>
<g>
	<g>
		<rect x="368" y="160" class="st0" width="16" height="16"/>
	</g>
</g>
<g>
	<g>
		<rect x="368" y="192" class="st0" width="16" height="16"/>
	</g>
</g>
<g>
	<g>
		<rect x="384" y="176" class="st0" width="16" height="16"/>
	</g>
</g>
<g>
	<g>
		<rect x="352" y="176" class="st0" width="16" height="16"/>
	</g>
</g>
</svg>
