<?xml version="1.0" encoding="utf-8"?>
<!-- Generator: Adobe Illustrator 21.1.0, SVG Export Plug-In . SVG Version: 6.00 Build 0)  -->
<svg version="1.1" id="Capa_1" xmlns="http://www.w3.org/2000/svg" xmlns:xlink="http://www.w3.org/1999/xlink" x="0px" y="0px"
	 viewBox="0 0 496 332" style="enable-background:new 0 0 496 332;" xml:space="preserve">
<style type="text/css">
	.st0{fill:#4B6EBA;}
</style>
<g>
	<g>
		<path class="st0" d="M482.1,44.5l-27.8-12.6c-29.4-13.4-60.5-21.1-92.4-23.2l0.1-0.4C360.6,7.9,328.5,0,288,0
			c-38.8,0-91,7.2-96.6,8H168C75.4,8,0,83.4,0,176v55.2c0,27.9,6.6,55.9,19.1,80.9C24,321.9,33.9,328,44.9,328
			c9.7,0,18.6-4.8,24-12.8c14.7-22,39.2-35.2,65.7-35.2h1.4c56.1,0,104.3-34.1,125.1-82.7l0.5,0.5c0.2-0.2,6.3-5.8,18.4-5.8
			c9.7,0,24.9,8.1,32.7,12.8c9.7,7,21.6,11.2,34.5,11.2c25.5,0,48-16.2,56.1-40.4l12.3-37c8.8-26.3,32.2-45.5,59.6-48.9
			C487,88.2,496,78.1,496,66.2C496,56.8,490.5,48.4,482.1,44.5z M256,144c0,66.2-53.8,120-120,120h-1.4c-31.8,0-61.4,15.8-79,42.3
			c-2.4,3.6-6.4,5.7-10.7,5.7c-4.9,0-9.3-2.7-11.5-7.1C22,282.1,16,256.6,16,231.2V176C16,92.2,84.2,24,168,24h64
			c13.2,0,24,10.8,24,24V144z M473.2,73.8c-33.6,4.2-62.1,27.6-72.8,59.7l-12.3,37c-5.9,17.6-22.3,29.5-40.9,29.5
			c-8.4,0-16.1-2.5-22.7-6.6l0,0c-0.4-0.2-1.2-0.8-2.4-1.5c-10.9-7.8-18.1-20.5-18.1-35V144h-16v12.9c0,7.4,1.4,14.4,3.9,21
			c-4.1-1.1-8.1-1.8-11.9-1.8c-4.7,0-8.8,0.6-12.3,1.5c2.7-10.7,4.3-21.9,4.3-33.5V48c0-12.5-5.8-23.5-14.8-30.8
			c10.5-0.7,21.2-1.2,30.8-1.2c9,0,17.6,0.4,25.5,1.1C298.2,27.1,288,44.4,288,64v64h16V64c0-22.1,17.9-40,40-40
			c36,0,70.9,7.6,103.7,22.5l27.8,12.6c2.7,1.2,4.5,4,4.5,7C480,70,477.1,73.3,473.2,73.8z"/>
	</g>
</g>
<g>
	<g>
		<path class="st0" d="M32,176v25.1h16V176c0-66.2,53.8-120,120-120V40C93,40,32,101,32,176z"/>
	</g>
</g>
<g>
	<g>
		<rect x="32" y="216.6" class="st0" width="16" height="14.6"/>
	</g>
</g>
<g>
	<g>
		<path class="st0" d="M224,144c0,48.5-39.5,88-88,88h-1.4v16h1.4c57.3,0,104-46.7,104-104H224z"/>
	</g>
</g>
<g>
	<g>
		<path class="st0" d="M370,123.4l-12.3,37c-1.5,4.6-5.8,7.6-10.6,7.6v16c11.7,0,22-7.5,25.7-18.6l12.3-37L370,123.4z"/>
	</g>
</g>
<g>
	<g>
		<path class="st0" d="M344,40v16c28,0,55.3,5.2,81.1,15.6l6-14.9C403.3,45.6,374,40,344,40z"/>
	</g>
</g>
</svg>
